# xmcd
#
# Track frame offsets:
#	150
#	13657
#	29475
#	43760
#	58905
#	71757
#	84765
#	97867
#	111412
#	125982
#	137720
#	149735
#	162387
#	177559
#	190860
#	204885
#	219702
#	233645
#	246382
#	257827
#	269040
#	287015
#	316655
#
# Disc length: 4412
#
# Revision: 2
# Processed by: cddbd v1.5.1PL0 Copyright (c) Steve Scherf et al.
# Submitted via: audiograbber 1.80
# Normalized: r0:TSWAP
#
DISCID=69113a17
DTITLE=Various Artist - MCA Song Catalog, Blues (1929-1994)
DYEAR=1900
DGENRE=
TTITLE0=Bessie Smith - Nobody Knows You When You're Down And Out
TTITLE1=Leroy Carr - Blues Before Sunrise
TTITLE2=Kokomo Arnold - Milk Cow Blues
TTITLE3=Mildred Bailey and Her Alley Cats - Downhearted Blues
TTITLE4=Joe Turner and Pete Johnson - Roll 'em Pete
TTITLE5=Jay McShann - Confessin' The Blues
TTITLE6=Big Bill Broonzy - I'm Gonna Move To The Outskirts Of Town
TTITLE7=Andy Kirk and His Twelve Clouds Of Joy - Hey Lawdy Mama
TTITLE8=Bea Booze - See See Rider
TTITLE9=Arthur Crudup - Mean Old Frisco Blues
TTITLE10=Cecil Gant - I Wonder
TTITLE11=Clarence 'gatemouth' Brown - My Time Is Expensive
TTITLE12=Billie Holiday - Tain't Nobody's Business If I Do
TTITLE13=Charles Brown - In The Evening (When The Sun Goes Down)
TTITLE14=John Lee Hooker - Worried Life Blues
TTITLE15=Muddy Waters - Baby Please Don't Go
TTITLE16=Jimmy Witherspoon - Trouble In Mind
TTITLE17=Little Walter - Key To The Highway
TTITLE18=Muddy Waters - Just A Dream
TTITLE19=B. B. King - Paying The Cost To Be The Boss
TTITLE20=Jimmy Witherspoon Featuring Ben Webster - I'd Rather Drink Muddy Water
TTITLE21=B. B. King - Why I Sing The Blues
TTITLE22=Eric Clapton - How Long, How Long Blues
EXTD=
EXTT0=
EXTT1=
EXTT2=
EXTT3=
EXTT4=
EXTT5=
EXTT6=
EXTT7=
EXTT8=
EXTT9=
EXTT10=
EXTT11=
EXTT12=
EXTT13=
EXTT14=
EXTT15=
EXTT16=
EXTT17=
EXTT18=
EXTT19=
EXTT20=
EXTT21=
EXTT22=
PLAYORDER=
